# xmcd
#
# Track frame offsets: 
#        150
#        11737
#        22990
#        35340
#        48555
#        61167
#        73617
#        85495
#        97897
#        110125
#        122580
#        134547
#        146822
#        160137
#        174517
#        187500
#        200107
#        212792
#
# Disc length: 3014 seconds
#
# Revision: 3
# Processed by: cddbd v1.5.2PL0 Copyright (c) Steve Scherf et al.
# Submitted via: ExactAudioCopy v0.99pb5
#
DISCID=000bc412
DTITLE=Various Artist - The History Of Country Music - The Forties - Volume 1
DTITLE=Various Artist - CD 1
DYEAR=1993
DGENRE=Country
TTITLE0=Eddy Arnold - Bouquet of roses
TTITLE1=Tex Ritter - When it's lamplighting time in the valley
TTITLE2=Al Dexter - Guitar polka
TTITLE3=Red Foley - Smoke on the water
TTITLE4=Ernest Tubb and The Andrews Sisters - I'm biting my fingernails 
TTITLE4=and thinking of you
TTITLE5=Gene Autry - At mail call today
TTITLE6=Foy Willing - Detour
TTITLE7=Roy Acuff - The prodigal son
TTITLE8=Hank Williams - Lovesick blues
TTITLE9=Ted Daffan's Texans - No letter today
TTITLE10=Floyd Tillman - Each night at nine
TTITLE11=Eddy Arnold - I'll hold you in my heart (till I can hold you 
TTITLE11=in my arms)
TTITLE12=Rosalie Allen - I want to be a cowboy's sweetheart
TTITLE13=Ernest Tubb - Soldier's last letter
TTITLE14=Spade Cooley - Shame on you
TTITLE15=Al Dexter and His Troopers - Pistol packin' mama
TTITLE16=Bob Wills and His Texas Playboys - New Spanish two step
TTITLE17=Vaughn Monroe And His Orchestra - Riders in the sky (a cowboy
TTITLE17=legend)
EXTD=
EXTT0=
EXTT1=
EXTT2=
EXTT3=
EXTT4=
EXTT5=
EXTT6=
EXTT7=
EXTT8=
EXTT9=
EXTT10=
EXTT11=
EXTT12=
EXTT13=
EXTT14=
EXTT15=
EXTT16=
EXTT17=
PLAYORDER=
